<?xml version="1.0" encoding="utf-8"?>
<!-- Generator: Adobe Illustrator 16.0.0, SVG Export Plug-In . SVG Version: 6.00 Build 0)  -->
<!DOCTYPE svg PUBLIC "-//W3C//DTD SVG 1.1//EN" "http://www.w3.org/Graphics/SVG/1.1/DTD/svg11.dtd">
<svg version="1.1" id="Layer_1" xmlns="http://www.w3.org/2000/svg" xmlns:xlink="http://www.w3.org/1999/xlink" x="0px" y="0px"
	 width="170.603px" height="133.493px" viewBox="0 0 170.603 133.493" enable-background="new 0 0 170.603 133.493"
	 xml:space="preserve">
<g>
	<g>
		<g>
			<circle fill="#4F4F4F" cx="47.963" cy="76.673" r="6.513"/>
			<circle fill="#515151" cx="47.963" cy="75.559" r="6.513"/>
			<circle fill="#525252" cx="47.963" cy="74.442" r="6.513"/>
			<circle fill="#535353" cx="47.963" cy="73.327" r="6.513"/>
			<circle fill="#545555" cx="47.963" cy="72.212" r="6.513"/>
			<circle fill="#555656" cx="47.963" cy="71.096" r="6.513"/>
			<circle fill="#575757" cx="47.963" cy="69.98" r="6.512"/>
			<circle fill="#585959" cx="47.963" cy="68.864" r="6.513"/>
			<circle fill="#595A5A" cx="47.963" cy="67.749" r="6.513"/>
			<circle fill="#5A5C5B" cx="47.963" cy="66.634" r="6.513"/>
			<circle fill="#5B5D5D" cx="47.963" cy="65.518" r="6.513"/>
			<circle fill="#5D5E5E" cx="47.963" cy="64.402" r="6.513"/>
			<circle fill="#5E6060" cx="47.963" cy="63.286" r="6.513"/>
			<circle fill="#5F6161" cx="47.964" cy="62.164" r="6.512"/>
			<circle fill="#616362" cx="48.033" cy="61.004" r="6.513"/>
			<circle fill="#626464" cx="48.21" cy="59.877" r="6.513"/>
			<circle fill="#636665" cx="48.489" cy="58.787" r="6.513"/>
			<circle fill="#646767" cx="48.864" cy="57.741" r="6.513"/>
			<circle fill="#666968" cx="49.331" cy="56.741" r="6.512"/>
			<circle fill="#676A6A" cx="49.884" cy="55.794" r="6.513"/>
			<circle fill="#686C6B" cx="50.52" cy="54.904" r="6.513"/>
			<circle fill="#6A6D6D" cx="51.232" cy="54.078" r="6.513"/>
			<circle fill="#6B6F6F" cx="52.014" cy="53.32" r="6.512"/>
			<circle fill="#6C7070" cx="52.864" cy="52.634" r="6.513"/>
			<circle fill="#6E7272" cx="53.774" cy="52.027" r="6.512"/>
			<circle fill="#6F7373" cx="54.74" cy="51.503" r="6.512"/>
			<circle fill="#707575" cx="55.757" cy="51.067" r="6.513"/>
			<circle fill="#727777" cx="56.819" cy="50.726" r="6.512"/>
			<circle fill="#737878" cx="57.922" cy="50.482" r="6.512"/>
			<circle fill="#747A7A" cx="59.061" cy="50.343" r="6.513"/>
			<circle fill="#767C7C" cx="60.215" cy="50.31" r="6.513"/>
			<circle fill="#777D7D" cx="61.331" cy="50.31" r="6.513"/>
			<circle fill="#787F7F" cx="62.485" cy="50.343" r="6.513"/>
			<circle fill="#7A8181" cx="63.624" cy="50.482" r="6.512"/>
			<circle fill="#7B8283" cx="64.727" cy="50.726" r="6.512"/>
			<circle fill="#7C8484" cx="65.79" cy="51.067" r="6.513"/>
			<circle fill="#7E8686" cx="66.806" cy="51.502" r="6.513"/>
			<circle fill="#7F8888" cx="67.773" cy="52.027" r="6.512"/>
			<circle fill="#81898A" cx="68.683" cy="52.634" r="6.513"/>
			<circle fill="#828B8C" cx="69.532" cy="53.319" r="6.512"/>
			<circle fill="#848D8E" cx="70.315" cy="54.078" r="6.512"/>
			<circle fill="#858F8F" cx="71.027" cy="54.905" r="6.513"/>
			<circle fill="#879191" cx="71.662" cy="55.793" r="6.513"/>
			<circle fill="#889293" cx="72.216" cy="56.74" r="6.513"/>
			<circle fill="#8A9495" cx="72.683" cy="57.741" r="6.513"/>
			<circle fill="#8B9697" cx="73.058" cy="58.788" r="6.513"/>
			<circle fill="#8D9899" cx="73.336" cy="59.877" r="6.513"/>
			<circle fill="#8E9A9B" cx="73.513" cy="61.003" r="6.513"/>
			<circle fill="#909C9D" cx="73.582" cy="62.163" r="6.513"/>
			<circle fill="#919E9F" cx="73.583" cy="63.286" r="6.513"/>
			<circle fill="#93A0A1" cx="73.583" cy="64.402" r="6.513"/>
			<circle fill="#94A2A3" cx="73.583" cy="65.518" r="6.513"/>
			<circle fill="#96A4A5" cx="73.583" cy="66.634" r="6.513"/>
			<circle fill="#97A6A7" cx="73.583" cy="67.749" r="6.513"/>
			<circle fill="#99A8A9" cx="73.583" cy="68.864" r="6.513"/>
			<circle fill="#9BAAAC" cx="73.583" cy="69.98" r="6.513"/>
			<circle fill="#9CACAE" cx="73.583" cy="71.096" r="6.513"/>
			<circle fill="#9EAEB0" cx="73.583" cy="72.212" r="6.513"/>
			<circle fill="#A0B0B2" cx="73.583" cy="73.327" r="6.513"/>
			<circle fill="#A2B3B5" cx="73.583" cy="74.442" r="6.513"/>
			<circle fill="#A4B6B8" cx="73.583" cy="75.559" r="6.513"/>
			<circle fill="#A6B9BB" cx="73.583" cy="76.674" r="6.513"/>
		</g>
		<g>
			<circle fill="#4F4F4F" cx="73.583" cy="76.671" r="6.513"/>
			<circle fill="#515151" cx="73.583" cy="75.555" r="6.513"/>
			<circle fill="#525252" cx="73.583" cy="74.438" r="6.512"/>
			<circle fill="#535353" cx="73.583" cy="73.323" r="6.513"/>
			<circle fill="#545555" cx="73.583" cy="72.208" r="6.512"/>
			<circle fill="#555656" cx="73.583" cy="71.092" r="6.513"/>
			<circle fill="#575757" cx="73.583" cy="69.977" r="6.513"/>
			<circle fill="#585959" cx="73.583" cy="68.861" r="6.512"/>
			<circle fill="#595A5A" cx="73.583" cy="67.745" r="6.512"/>
			<circle fill="#5A5C5B" cx="73.583" cy="66.63" r="6.513"/>
			<circle fill="#5B5D5D" cx="73.583" cy="65.515" r="6.512"/>
			<circle fill="#5D5E5E" cx="73.583" cy="64.398" r="6.513"/>
			<circle fill="#5E6060" cx="73.583" cy="63.283" r="6.513"/>
			<circle fill="#5F6161" cx="73.584" cy="62.16" r="6.513"/>
			<circle fill="#616362" cx="73.653" cy="61.001" r="6.513"/>
			<circle fill="#626464" cx="73.83" cy="59.875" r="6.513"/>
			<circle fill="#636665" cx="74.108" cy="58.786" r="6.513"/>
			<circle fill="#646767" cx="74.484" cy="57.738" r="6.513"/>
			<circle fill="#666968" cx="74.95" cy="56.739" r="6.513"/>
			<circle fill="#676A6A" cx="75.504" cy="55.792" r="6.513"/>
			<circle fill="#686C6B" cx="76.139" cy="54.903" r="6.513"/>
			<circle fill="#6A6D6D" cx="76.852" cy="54.076" r="6.513"/>
			<circle fill="#6B6F6F" cx="77.634" cy="53.318" r="6.513"/>
			<circle fill="#6C7070" cx="78.483" cy="52.632" r="6.513"/>
			<circle fill="#6E7272" cx="79.393" cy="52.025" r="6.513"/>
			<circle fill="#6F7373" cx="80.36" cy="51.501" r="6.513"/>
			<circle fill="#707575" cx="81.376" cy="51.066" r="6.513"/>
			<circle fill="#727777" cx="82.439" cy="50.724" r="6.513"/>
			<circle fill="#737878" cx="83.542" cy="50.48" r="6.512"/>
			<circle fill="#747A7A" cx="84.681" cy="50.341" r="6.513"/>
			<circle fill="#767C7C" cx="85.835" cy="50.308" r="6.513"/>
			<circle fill="#777D7D" cx="86.951" cy="50.308" r="6.513"/>
			<circle fill="#787F7F" cx="88.105" cy="50.341" r="6.513"/>
			<circle fill="#7A8181" cx="89.244" cy="50.48" r="6.513"/>
			<circle fill="#7B8283" cx="90.347" cy="50.724" r="6.513"/>
			<circle fill="#7C8484" cx="91.409" cy="51.066" r="6.513"/>
			<circle fill="#7E8686" cx="92.427" cy="51.501" r="6.513"/>
			<circle fill="#7F8888" cx="93.393" cy="52.025" r="6.512"/>
			<circle fill="#81898A" cx="94.303" cy="52.632" r="6.513"/>
			<circle fill="#828B8C" cx="95.152" cy="53.318" r="6.513"/>
			<circle fill="#848D8E" cx="95.934" cy="54.076" r="6.513"/>
			<circle fill="#858F8F" cx="96.646" cy="54.903" r="6.513"/>
			<circle fill="#879191" cx="97.281" cy="55.792" r="6.513"/>
			<circle fill="#889293" cx="97.835" cy="56.738" r="6.513"/>
			<circle fill="#8A9495" cx="98.302" cy="57.738" r="6.513"/>
			<circle fill="#8B9697" cx="98.677" cy="58.786" r="6.513"/>
			<circle fill="#8D9899" cx="98.956" cy="59.875" r="6.513"/>
			<circle fill="#8E9A9B" cx="99.132" cy="61.001" r="6.513"/>
			<path fill="#909C9D" d="M92.689,62.238c-0.043-3.598,2.837-6.546,6.435-6.589c3.596-0.044,6.546,2.836,6.589,6.433
				c0.043,3.599-2.837,6.548-6.434,6.592C95.683,68.717,92.732,65.837,92.689,62.238z"/>
			<circle fill="#919E9F" cx="99.203" cy="63.284" r="6.513"/>
			<circle fill="#93A0A1" cx="99.203" cy="64.398" r="6.512"/>
			<circle fill="#94A2A3" cx="99.203" cy="65.515" r="6.513"/>
			<circle fill="#96A4A5" cx="99.203" cy="66.63" r="6.513"/>
			<circle fill="#97A6A7" cx="99.203" cy="67.745" r="6.513"/>
			<circle fill="#99A8A9" cx="99.203" cy="68.861" r="6.513"/>
			<circle fill="#9BAAAC" cx="99.203" cy="69.977" r="6.513"/>
			<circle fill="#9CACAE" cx="99.203" cy="71.092" r="6.513"/>
			<circle fill="#9EAEB0" cx="99.203" cy="72.208" r="6.512"/>
			<circle fill="#A0B0B2" cx="99.203" cy="73.323" r="6.513"/>
			<circle fill="#A2B3B5" cx="99.203" cy="74.438" r="6.513"/>
			<circle fill="#A4B6B8" cx="99.203" cy="75.555" r="6.513"/>
			<circle fill="#A6B9BB" cx="99.203" cy="76.67" r="6.513"/>
		</g>
	</g>
	<circle fill="#A6B9BB" cx="122.64" cy="76.673" r="6.513"/>
</g>
</svg>
