<?xml version="1.0" encoding="utf-8"?>
<!-- Generator: Adobe Illustrator 16.0.0, SVG Export Plug-In . SVG Version: 6.00 Build 0)  -->
<!DOCTYPE svg PUBLIC "-//W3C//DTD SVG 1.1//EN" "http://www.w3.org/Graphics/SVG/1.1/DTD/svg11.dtd">
<svg version="1.1" id="Layer_1" xmlns="http://www.w3.org/2000/svg" xmlns:xlink="http://www.w3.org/1999/xlink" x="0px" y="0px"
	 width="152.604px" height="115.494px" viewBox="0 0 152.604 115.494" enable-background="new 0 0 152.604 115.494"
	 xml:space="preserve">
<g>
	<g>
		<g>
			<circle fill="#85A2A3" cx="38.964" cy="67.672" r="6.513"/>
			<circle fill="#87A2A1" cx="38.964" cy="66.556" r="6.513"/>
			<circle fill="#88A2A0" cx="38.964" cy="65.439" r="6.513"/>
			<circle fill="#8AA39E" cx="38.964" cy="64.324" r="6.513"/>
			<circle fill="#8BA39D" cx="38.964" cy="63.209" r="6.513"/>
			<circle fill="#8DA39B" cx="38.964" cy="62.093" r="6.513"/>
			<circle fill="#8EA399" cx="38.964" cy="60.978" r="6.513"/>
			<circle fill="#90A498" cx="38.964" cy="59.862" r="6.513"/>
			<circle fill="#91A496" cx="38.964" cy="58.746" r="6.513"/>
			<circle fill="#93A495" cx="38.964" cy="57.631" r="6.513"/>
			<circle fill="#94A493" cx="38.964" cy="56.516" r="6.513"/>
			<circle fill="#95A591" cx="38.964" cy="55.399" r="6.513"/>
			<circle fill="#97A590" cx="38.964" cy="54.284" r="6.513"/>
			<circle fill="#98A58E" cx="38.965" cy="53.161" r="6.513"/>
			<circle fill="#99A68C" cx="39.034" cy="52.002" r="6.513"/>
			<circle fill="#9BA68B" cx="39.211" cy="50.875" r="6.512"/>
			<circle fill="#9CA689" cx="39.489" cy="49.787" r="6.513"/>
			<circle fill="#9EA688" cx="39.864" cy="48.74" r="6.513"/>
			<circle fill="#9FA786" cx="40.332" cy="47.739" r="6.513"/>
			<circle fill="#A0A784" cx="40.885" cy="46.792" r="6.513"/>
			<circle fill="#A2A783" cx="41.521" cy="45.903" r="6.513"/>
			<circle fill="#A3A881" cx="42.232" cy="45.078" r="6.513"/>
			<circle fill="#A4A880" cx="43.015" cy="44.319" r="6.513"/>
			<circle fill="#A6A87E" cx="43.864" cy="43.633" r="6.513"/>
			<circle fill="#A7A97C" cx="44.774" cy="43.026" r="6.513"/>
			<circle fill="#A9A97B" cx="45.741" cy="42.502" r="6.513"/>
			<circle fill="#AAA979" cx="46.757" cy="42.067" r="6.513"/>
			<circle fill="#ABA977" cx="47.82" cy="41.725" r="6.513"/>
			<circle fill="#ADAA75" cx="48.923" cy="41.481" r="6.513"/>
			<circle fill="#AEAA74" cx="50.062" cy="41.342" r="6.513"/>
			<circle fill="#AFAA72" cx="51.215" cy="41.309" r="6.513"/>
			<circle fill="#B1AB70" cx="52.332" cy="41.309" r="6.513"/>
			<circle fill="#B2AB6E" cx="53.486" cy="41.342" r="6.513"/>
			<circle fill="#B3AB6C" cx="54.625" cy="41.481" r="6.513"/>
			<circle fill="#B5AC6A" cx="55.728" cy="41.725" r="6.513"/>
			<circle fill="#B6AC68" cx="56.791" cy="42.066" r="6.513"/>
			<circle fill="#B7AC66" cx="57.806" cy="42.502" r="6.513"/>
			<circle fill="#B9AD64" cx="58.773" cy="43.026" r="6.512"/>
			<circle fill="#BAAD61" cx="59.683" cy="43.634" r="6.512"/>
			<circle fill="#BBAD5F" cx="60.533" cy="44.319" r="6.513"/>
			<circle fill="#BDAE5D" cx="61.315" cy="45.078" r="6.513"/>
			<circle fill="#BEAE5B" cx="62.027" cy="45.903" r="6.513"/>
			<circle fill="#BFAE58" cx="62.662" cy="46.792" r="6.513"/>
			<circle fill="#C1AE56" cx="63.216" cy="47.739" r="6.513"/>
			<circle fill="#C2AF54" cx="63.683" cy="48.74" r="6.513"/>
			<circle fill="#C3AF51" cx="64.058" cy="49.788" r="6.513"/>
			<circle fill="#C5AF4F" cx="64.337" cy="50.875" r="6.512"/>
			<circle fill="#C6B04C" cx="64.513" cy="52.002" r="6.513"/>
			<path fill="#C7B04A" d="M58.07,53.239c-0.043-3.598,2.837-6.546,6.435-6.589c3.597-0.044,6.547,2.836,6.59,6.433
				c0.043,3.599-2.837,6.548-6.434,6.592C61.063,59.718,58.113,56.838,58.07,53.239z"/>
			<circle fill="#C8B048" cx="64.583" cy="54.285" r="6.513"/>
			<circle fill="#CAB145" cx="64.583" cy="55.399" r="6.513"/>
			<circle fill="#CBB143" cx="64.583" cy="56.516" r="6.512"/>
			<circle fill="#CCB140" cx="64.583" cy="57.631" r="6.512"/>
			<circle fill="#CEB23E" cx="64.583" cy="58.746" r="6.513"/>
			<circle fill="#CFB23B" cx="64.583" cy="59.862" r="6.513"/>
			<circle fill="#D0B338" cx="64.583" cy="60.978" r="6.513"/>
			<circle fill="#D1B336" cx="64.583" cy="62.093" r="6.513"/>
			<circle fill="#D3B333" cx="64.583" cy="63.209" r="6.513"/>
			<circle fill="#D4B430" cx="64.583" cy="64.324" r="6.513"/>
			<circle fill="#D5B42D" cx="64.583" cy="65.439" r="6.512"/>
			<circle fill="#D6B42B" cx="64.583" cy="66.556" r="6.513"/>
			<circle fill="#D7B528" cx="64.583" cy="67.671" r="6.513"/>
		</g>
		<g>
			<circle fill="#85A2A3" cx="64.583" cy="67.672" r="6.513"/>
			<circle fill="#87A2A1" cx="64.583" cy="66.556" r="6.513"/>
			<circle fill="#88A2A0" cx="64.583" cy="65.439" r="6.513"/>
			<circle fill="#8AA39E" cx="64.583" cy="64.324" r="6.513"/>
			<circle fill="#8BA39D" cx="64.583" cy="63.209" r="6.513"/>
			<circle fill="#8DA39B" cx="64.583" cy="62.093" r="6.513"/>
			<circle fill="#8EA399" cx="64.583" cy="60.978" r="6.512"/>
			<circle fill="#90A498" cx="64.583" cy="59.862" r="6.513"/>
			<circle fill="#91A496" cx="64.583" cy="58.746" r="6.513"/>
			<circle fill="#93A495" cx="64.583" cy="57.631" r="6.513"/>
			<circle fill="#94A493" cx="64.583" cy="56.516" r="6.513"/>
			<circle fill="#95A591" cx="64.583" cy="55.399" r="6.513"/>
			<circle fill="#97A590" cx="64.583" cy="54.284" r="6.513"/>
			<circle fill="#98A58E" cx="64.584" cy="53.161" r="6.512"/>
			<circle fill="#99A68C" cx="64.654" cy="52.002" r="6.513"/>
			<circle fill="#9BA68B" cx="64.83" cy="50.875" r="6.513"/>
			<circle fill="#9CA689" cx="65.109" cy="49.787" r="6.513"/>
			<circle fill="#9EA688" cx="65.484" cy="48.74" r="6.513"/>
			<circle fill="#9FA786" cx="65.951" cy="47.739" r="6.512"/>
			<circle fill="#A0A784" cx="66.505" cy="46.792" r="6.513"/>
			<circle fill="#A2A783" cx="67.141" cy="45.903" r="6.513"/>
			<circle fill="#A3A881" cx="67.852" cy="45.078" r="6.513"/>
			<circle fill="#A4A880" cx="68.634" cy="44.319" r="6.513"/>
			<circle fill="#A6A87E" cx="69.483" cy="43.633" r="6.513"/>
			<circle fill="#A7A97C" cx="70.394" cy="43.026" r="6.512"/>
			<circle fill="#A9A97B" cx="71.361" cy="42.502" r="6.513"/>
			<circle fill="#AAA979" cx="72.377" cy="42.067" r="6.513"/>
			<circle fill="#ABA977" cx="73.439" cy="41.725" r="6.513"/>
			<circle fill="#ADAA75" cx="74.542" cy="41.481" r="6.513"/>
			<circle fill="#AEAA74" cx="75.681" cy="41.342" r="6.513"/>
			<circle fill="#AFAA72" cx="76.834" cy="41.309" r="6.513"/>
			<circle fill="#B1AB70" cx="77.951" cy="41.309" r="6.513"/>
			<circle fill="#B2AB6E" cx="79.105" cy="41.342" r="6.513"/>
			<circle fill="#B3AB6C" cx="80.244" cy="41.481" r="6.512"/>
			<circle fill="#B5AC6A" cx="81.347" cy="41.725" r="6.513"/>
			<circle fill="#B6AC68" cx="82.41" cy="42.067" r="6.513"/>
			<circle fill="#B7AC66" cx="83.426" cy="42.502" r="6.513"/>
			<circle fill="#B9AD64" cx="84.393" cy="43.026" r="6.512"/>
			<circle fill="#BAAD61" cx="85.303" cy="43.633" r="6.513"/>
			<circle fill="#BBAD5F" cx="86.152" cy="44.319" r="6.513"/>
			<circle fill="#BDAE5D" cx="86.935" cy="45.078" r="6.513"/>
			<circle fill="#BEAE5B" cx="87.646" cy="45.903" r="6.513"/>
			<circle fill="#BFAE58" cx="88.281" cy="46.792" r="6.513"/>
			<circle fill="#C1AE56" cx="88.835" cy="47.739" r="6.513"/>
			<circle fill="#C2AF54" cx="89.303" cy="48.74" r="6.513"/>
			<circle fill="#C3AF51" cx="89.678" cy="49.788" r="6.513"/>
			<circle fill="#C5AF4F" cx="89.956" cy="50.875" r="6.513"/>
			<circle fill="#C6B04C" cx="90.133" cy="52.002" r="6.513"/>
			<path fill="#C7B04A" d="M83.69,53.239c-0.043-3.598,2.838-6.546,6.435-6.589c3.597-0.044,6.547,2.836,6.59,6.433
				c0.043,3.599-2.837,6.549-6.434,6.592C86.684,59.718,83.733,56.838,83.69,53.239z"/>
			<circle fill="#C8B048" cx="90.203" cy="54.285" r="6.513"/>
			<circle fill="#CAB145" cx="90.203" cy="55.399" r="6.513"/>
			<circle fill="#CBB143" cx="90.203" cy="56.516" r="6.513"/>
			<circle fill="#CCB140" cx="90.203" cy="57.631" r="6.513"/>
			<circle fill="#CEB23E" cx="90.203" cy="58.746" r="6.513"/>
			<circle fill="#CFB23B" cx="90.203" cy="59.862" r="6.513"/>
			<circle fill="#D0B338" cx="90.203" cy="60.978" r="6.513"/>
			<circle fill="#D1B336" cx="90.203" cy="62.093" r="6.513"/>
			<circle fill="#D3B333" cx="90.203" cy="63.209" r="6.513"/>
			<circle fill="#D4B430" cx="90.203" cy="64.324" r="6.513"/>
			<circle fill="#D5B42D" cx="90.203" cy="65.439" r="6.513"/>
			<circle fill="#D6B42B" cx="90.203" cy="66.556" r="6.513"/>
			<circle fill="#D7B528" cx="90.203" cy="67.671" r="6.513"/>
		</g>
	</g>
	<circle fill="#D7B528" cx="113.64" cy="67.672" r="6.513"/>
</g>
</svg>
